<svg width="1007" height="175" viewBox="0 0 1007 175" fill="none" xmlns="http://www.w3.org/2000/svg">
<g opacity="0.7">
<path d="M1006 83.7514C995.31 121.544 981.83 103.609 979.506 96.9896L973.463 80.1216C967.886 64.7483 960.913 64.7483 957.66 80.3351L952.547 107.025C946.969 135.636 939.997 135.636 936.743 106.811L931.63 60.4779C928.376 31.8664 921.404 31.6529 915.826 60.2644L909.784 92.2922C907.46 104.89 900.488 105.103 893.98 92.7192L890.726 86.5272C887.008 79.2676 880.036 79.2676 875.388 86.3137L870.275 94.0003C866.556 99.3383 860.049 99.3383 855.401 94.2139L848.428 86.3137C845.639 82.8974 839.132 82.6839 834.484 85.6731L828.441 89.5164C824.723 91.8652 819.145 91.8652 815.426 89.5164L812.638 87.8083C806.13 83.7514 799.623 84.392 798.228 89.5164L792.651 107.879C788.002 124.106 781.03 124.106 776.847 107.879L768.945 76.0648C765.691 62.8266 758.719 62.6131 753.141 75.8513L752.212 78.4135C746.634 91.6516 739.662 91.4381 736.408 78.2L731.295 56.6346C725.717 34.0016 718.745 34.0016 715.491 56.8481L706.195 120.477C702.941 141.829 695.969 141.829 690.391 120.69L682.489 89.9435C681.095 84.819 674.588 83.965 668.08 88.2353L666.221 89.3029C662.038 91.8651 656.46 91.6516 652.741 89.0894L650.882 87.8083C646.234 83.965 639.727 84.1785 636.473 88.4489L631.36 95.2815C625.782 102.968 618.81 102.541 616.021 94.6409L607.19 70.2998C603.471 60.2644 596.499 60.2644 591.386 70.0862L584.414 83.7514C581.625 89.3029 575.117 89.73 569.54 84.6055L565.821 80.9757C562.103 77.1324 555.595 77.1324 551.412 80.9757L543.51 88.4489C540.256 91.4381 534.214 91.8652 530.03 89.0894L526.777 86.9542C521.199 83.5379 515.156 83.965 512.832 88.0218L509.114 94.6409C504.466 102.541 497.493 102.541 493.775 94.4274L486.338 78.4135C483.084 71.3674 476.112 71.1538 470.999 77.9864L464.492 87.1677C461.703 90.7976 455.66 91.2246 450.547 88.0218L448.688 86.7407C443.11 83.3244 437.067 83.7514 434.743 87.8083L427.306 100.192C422.193 108.52 415.221 108.52 411.967 99.9789L406.39 86.7407C401.742 74.9972 394.305 74.9972 390.586 86.9542L385.008 103.822C380.36 118.769 373.388 118.555 369.205 103.822L365.021 87.8083C359.908 68.3781 352.936 68.3781 349.217 88.0218L346.893 99.5518C342.245 124.106 335.273 124.106 331.09 99.5518L326.442 72.435C321.793 45.7451 314.821 45.7451 310.638 72.435L305.525 104.89C300.877 134.782 293.905 134.782 289.721 104.89L283.679 62.8266C279.495 33.1475 272.523 33.1475 267.875 62.8266L262.762 94.6409C260.903 106.384 253.931 106.598 246.958 95.2815L241.381 85.6731C237.662 79.2676 230.69 79.2676 226.042 85.4596L220.929 92.5057C216.745 98.0572 210.238 98.0572 206.055 92.5057L202.336 87.3813C199.547 83.7514 193.04 83.3244 188.392 86.5272L182.814 89.9435C179.095 92.2922 173.518 92.2922 169.799 89.9435L166.545 87.8083C160.503 83.965 153.995 84.6055 152.136 89.3029L144.699 109.374C139.121 124.747 132.149 124.747 128.895 109.16L120.529 64.9618C116.81 45.9587 109.838 45.9586 104.725 64.7483L98.2176 89.9435C95.4287 100.406 88.4565 100.619 82.4139 90.3705L77.7658 82.4703C74.5121 76.9189 68.0047 76.7053 62.8917 81.8298L57.7788 87.3813C54.0602 91.0111 48.0176 91.2246 43.3695 87.8083C38.7214 83.965 32.214 84.1785 28.9603 88.4489L22.4528 97.2031C17.8047 103.822 10.3677 105.957 2.46582 87.5948" stroke="#0F42FF" stroke-miterlimit="10" stroke-linecap="round" stroke-linejoin="round"/>
<path d="M2 86.7401L12.2259 105.316C18.2685 116.206 24.7759 115.565 27.5648 103.822L33.6074 74.356C39.1852 47.2392 46.1574 47.4527 49.4111 74.7831L54.524 121.971C60.1018 172.361 67.074 172.148 70.3277 121.757L75.4407 39.9795C78.6944 -10.6244 85.6666 -10.6244 91.2444 39.766L97.287 96.3485C99.6111 118.554 106.583 118.981 113.091 97.2025L116.344 86.3131C120.063 73.7155 127.035 73.502 131.683 85.886L136.796 99.5512C140.515 108.946 147.022 109.16 151.67 99.9783L158.643 85.886C161.431 79.9075 167.939 79.267 172.587 84.6049L178.63 91.4375C182.348 95.4944 187.926 95.4944 191.644 91.4375L194.433 88.4483C200.941 81.1886 207.448 82.4697 208.842 91.224L214.42 123.465C219.068 151.863 226.041 151.863 230.224 123.252L238.126 67.0964C241.379 43.8229 248.352 43.6093 253.93 66.6694L254.859 70.9397C260.437 94.2133 267.409 93.9997 270.663 70.5127L275.776 32.5064C281.354 -7.4216 288.326 -7.4216 291.579 32.7199L300.876 145.031C304.129 182.61 311.102 182.823 316.679 145.458L324.581 91.4375C325.976 82.4697 332.483 80.9751 338.991 88.4483L340.85 90.3699C345.033 94.8538 350.611 94.6403 354.329 89.7294L356.189 87.3807C360.837 80.5481 367.344 80.9751 370.598 88.4483L375.711 100.619C381.289 114.07 388.261 113.643 391.05 99.5512L399.881 56.634C403.6 38.9119 410.572 38.9119 415.685 56.2069L421.263 80.5481C424.052 90.5834 430.559 91.0105 436.137 81.8292L439.855 75.4236C443.574 68.8045 450.081 68.8045 454.265 75.4236L462.166 88.6618C465.42 93.9997 471.463 94.4268 475.646 89.7294L478.9 86.0996C484.478 79.9075 490.52 80.9751 492.844 88.2347L496.563 99.7647C501.211 113.857 508.183 113.643 511.902 99.5512L519.339 71.3668C522.592 58.9827 529.565 58.5557 534.677 70.7262L541.185 86.9536C543.974 93.5727 550.016 94.2133 555.129 88.6618L556.989 86.3131C562.566 80.3346 568.609 81.1886 570.933 88.4483L578.37 110.441C583.483 125.173 590.455 124.96 593.709 110.014L599.287 86.5266C603.935 65.8153 611.372 66.0288 615.09 86.7401L620.668 116.419C625.316 142.468 632.289 142.468 636.472 116.206L640.655 87.8077C645.768 53.4312 652.74 53.6447 656.459 88.0212L658.783 108.519C663.431 151.863 670.403 151.863 674.587 108.519L679.235 60.9044C683.883 13.7167 690.855 13.9303 695.039 60.9044L700.151 118.127C704.8 170.866 711.772 170.866 715.955 118.127L721.998 44.0364C726.181 -8.27568 733.153 -8.4892 737.801 44.0364L742.914 99.9783C744.774 120.69 751.746 121.117 758.718 101.259L764.296 84.1779C768.014 73.0749 774.987 72.8614 779.635 83.7509L785.213 95.4944C789.396 105.316 795.903 105.316 800.087 95.4944L803.805 86.5266C806.594 80.121 813.101 79.267 817.75 84.8184L823.327 91.0105C827.046 95.0673 832.624 95.0673 836.342 91.0105L839.596 87.3807C845.638 80.3346 852.146 81.6157 854.005 90.1564L861.442 125.601C867.02 152.717 873.992 152.504 877.246 125.173L885.613 47.2392C889.331 13.7167 896.303 13.7167 901.416 47.0256L907.924 91.224C910.712 109.8 917.685 110.227 923.727 92.0781L928.375 77.9858C931.629 68.164 938.137 67.7369 943.25 76.9182L948.362 86.5266C952.081 92.9321 958.124 93.1457 962.772 87.1671C967.42 80.3345 973.927 80.7616 977.181 88.2347L983.688 103.608C988.337 115.352 995.309 115.138 999.027 102.968L1005.07 82.8968" stroke="#0F42FF" stroke-width="3" stroke-miterlimit="10" stroke-linecap="round" stroke-linejoin="round"/>
</g>
</svg>
